<svg aria-hidden="true" xmlns="http://www.w3.org/2000/svg" xmlns:xlink="http://www.w3.org/1999/xlink"><symbol viewBox="0 0 32 32" fill="none" id="arrow-btn-right" xmlns="http://www.w3.org/2000/svg">
<path d="M6.66699 16H25.3337" stroke="currentColor" stroke-width="2" stroke-linecap="round" stroke-linejoin="round"/>
<path d="M16 6.66667L25.3333 16L16 25.3333" stroke="currentColor" stroke-width="2" stroke-linecap="round" stroke-linejoin="round"/>
</symbol><symbol viewBox="0 0 26 12" fill="none" id="arrow-btn-send" xmlns="http://www.w3.org/2000/svg">
<path d="M0 10.0116H23.5L16 1" stroke="currentColor" stroke-width="2"/>
</symbol><symbol viewBox="0 0 50 50" fill="none" id="arrow-right-long" xmlns="http://www.w3.org/2000/svg">
<path d="M24.2542 25.3333H45.1356" stroke="currentColor" stroke-width="2" stroke-linecap="round" stroke-linejoin="round"/>
<path d="M36.5593 16L47 25.3333L36.5593 34.6667" stroke="currentColor" stroke-width="2" stroke-linecap="round" stroke-linejoin="round"/>
<path d="M3 25.3333H23.8814" stroke="currentColor" stroke-width="2" stroke-linecap="round" stroke-linejoin="round"/>
</symbol><symbol viewBox="0 0 24 24" fill="none" id="facebook" xmlns="http://www.w3.org/2000/svg">
<path d="M22 12.0607C22 6.504 17.5233 2 12 2C6.47667 2 2 6.504 2 12.0607C2 17.0833 5.656 21.2453 10.4373 22V14.9693H7.89867V12.06H10.4373V9.844C10.4373 7.32267 11.93 5.92933 14.2147 5.92933C15.308 5.92933 16.4533 6.126 16.4533 6.126V8.602H15.1913C13.9493 8.602 13.5627 9.378 13.5627 10.174V12.0607H16.336L15.8927 14.9687H13.5627V22C18.344 21.2453 22 17.0833 22 12.0607Z" fill="currentColor"/>
</symbol><symbol viewBox="0 0 24 24" fill="none" id="instagram" xmlns="http://www.w3.org/2000/svg">
<path fill-rule="evenodd" clip-rule="evenodd" d="M12 3C9.5556 3 9.2496 3.0102 8.2896 3.054C7.3314 3.0978 6.6768 3.2502 6.1044 3.4728C5.5044 3.6984 4.9602 4.0524 4.5102 4.5108C4.05253 4.96028 3.69831 5.5041 3.4722 6.1044C3.2508 6.6768 3.0978 7.332 3.054 8.2902C3.0108 9.2496 3 9.555 3 12C3 14.445 3.0102 14.7504 3.054 15.7104C3.0978 16.6686 3.2502 17.3232 3.4728 17.8956C3.6984 18.4956 4.0524 19.0398 4.5108 19.4898C4.96029 19.9475 5.50411 20.3017 6.1044 20.5278C6.6768 20.7498 7.3314 20.9022 8.2896 20.946C9.2496 20.9898 9.5556 21 12 21C14.4444 21 14.7504 20.9898 15.7104 20.946C16.6686 20.9022 17.3232 20.7498 17.8956 20.5272C18.4956 20.3016 19.0398 19.9476 19.4898 19.4892C19.9475 19.0397 20.3017 18.4959 20.5278 17.8956C20.7498 17.3232 20.9022 16.6686 20.946 15.7104C20.9898 14.7504 21 14.4444 21 12C21 9.5556 20.9898 9.2496 20.946 8.2896C20.9022 7.3314 20.7498 6.6768 20.5272 6.1044C20.3012 5.50384 19.947 4.95979 19.4892 4.5102C19.0397 4.05253 18.4959 3.69831 17.8956 3.4722C17.3232 3.2508 16.668 3.0978 15.7098 3.054C14.7504 3.0108 14.445 3 12 3ZM12 4.6218C14.403 4.6218 14.688 4.6308 15.6372 4.674C16.5144 4.7142 16.9908 4.86 17.3082 4.9842C17.7282 5.1468 18.0282 5.3424 18.3432 5.6568C18.6582 5.9718 18.8532 6.2718 19.0158 6.6918C19.1394 7.0092 19.2858 7.4856 19.326 8.3628C19.3692 9.312 19.3782 9.597 19.3782 12C19.3782 14.403 19.3692 14.688 19.326 15.6372C19.2858 16.5144 19.14 16.9908 19.0158 17.3082C18.8718 17.6991 18.6419 18.0528 18.3432 18.3432C18.0528 18.642 17.6992 18.8718 17.3082 19.0158C16.9908 19.1394 16.5144 19.2858 15.6372 19.326C14.688 19.3692 14.4036 19.3782 12 19.3782C9.5964 19.3782 9.312 19.3692 8.3628 19.326C7.4856 19.2858 7.0092 19.14 6.6918 19.0158C6.30087 18.8718 5.9472 18.6419 5.6568 18.3432C5.35811 18.0528 5.12828 17.6991 4.9842 17.3082C4.8606 16.9908 4.7142 16.5144 4.674 15.6372C4.6308 14.688 4.6218 14.403 4.6218 12C4.6218 9.597 4.6308 9.312 4.674 8.3628C4.7142 7.4856 4.86 7.0092 4.9842 6.6918C5.1468 6.2718 5.3424 5.9718 5.6568 5.6568C5.94716 5.35803 6.30085 5.12819 6.6918 4.9842C7.0092 4.8606 7.4856 4.7142 8.3628 4.674C9.312 4.6308 9.597 4.6218 12 4.6218V4.6218Z" fill="currentColor"/>
<path fill-rule="evenodd" clip-rule="evenodd" d="M12 15.003C11.6056 15.003 11.2151 14.9253 10.8508 14.7744C10.4865 14.6235 10.1554 14.4023 9.87655 14.1234C9.5977 13.8446 9.3765 13.5135 9.22558 13.1492C9.07467 12.7849 8.99699 12.3944 8.99699 12C8.99699 11.6056 9.07467 11.2151 9.22558 10.8508C9.3765 10.4865 9.5977 10.1554 9.87655 9.87656C10.1554 9.59771 10.4865 9.37651 10.8508 9.22559C11.2151 9.07468 11.6056 8.997 12 8.997C12.7964 8.997 13.5603 9.31339 14.1234 9.87656C14.6866 10.4397 15.003 11.2036 15.003 12C15.003 12.7964 14.6866 13.5603 14.1234 14.1234C13.5603 14.6866 12.7964 15.003 12 15.003V15.003ZM12 7.374C10.7731 7.374 9.59646 7.86138 8.72892 8.72893C7.86137 9.59647 7.37399 10.7731 7.37399 12C7.37399 13.2269 7.86137 14.4035 8.72892 15.2711C9.59646 16.1386 10.7731 16.626 12 16.626C13.2269 16.626 14.4035 16.1386 15.2711 15.2711C16.1386 14.4035 16.626 13.2269 16.626 12C16.626 10.7731 16.1386 9.59647 15.2711 8.72893C14.4035 7.86138 13.2269 7.374 12 7.374V7.374ZM17.9718 7.29C17.9718 7.58002 17.8566 7.85815 17.6515 8.06322C17.4464 8.2683 17.1683 8.3835 16.8783 8.3835C16.5883 8.3835 16.3101 8.2683 16.1051 8.06322C15.9 7.85815 15.7848 7.58002 15.7848 7.29C15.7848 6.99999 15.9 6.72185 16.1051 6.51678C16.3101 6.31171 16.5883 6.1965 16.8783 6.1965C17.1683 6.1965 17.4464 6.31171 17.6515 6.51678C17.8566 6.72185 17.9718 6.99999 17.9718 7.29" fill="currentColor"/>
</symbol><symbol viewBox="0 0 50 50" fill="none" id="quality" xmlns="http://www.w3.org/2000/svg">
<path d="M25 47.6562C23.9063 47.6562 22.8809 47.2266 22.1094 46.4551L18.6133 42.959C18.1348 42.4805 17.5 42.2168 16.8262 42.2168H11.875C9.61914 42.2168 7.7832 40.3809 7.7832 38.125V33.1738C7.7832 32.5 7.51953 31.8652 7.04102 31.3867L3.54492 27.8906C1.95313 26.2988 1.95313 23.7012 3.54492 22.1094L7.04102 18.6133C7.51953 18.1348 7.7832 17.5 7.7832 16.8262V11.875C7.7832 9.61914 9.61914 7.7832 11.875 7.7832H16.8262C17.5 7.7832 18.1348 7.51953 18.6133 7.04102L22.1094 3.54492C22.8809 2.77344 23.9063 2.34375 25 2.34375C26.0938 2.34375 27.1191 2.77344 27.8906 3.54492L31.3867 7.04102C31.8652 7.51953 32.5 7.7832 33.1738 7.7832H38.125C40.3809 7.7832 42.2168 9.61914 42.2168 11.875V16.8262C42.2168 17.5 42.4805 18.1348 42.959 18.6133L46.4551 22.1094C48.0469 23.7012 48.0469 26.2988 46.4551 27.8906L42.959 31.3867C42.4805 31.8652 42.2168 32.5 42.2168 33.1738V38.125C42.2168 40.3809 40.3809 42.2168 38.125 42.2168H33.1738C32.5 42.2168 31.8652 42.4805 31.3867 42.959L27.8906 46.4551C27.1191 47.2266 26.0938 47.6562 25 47.6562ZM11.875 9.3457C10.4785 9.3457 9.3457 10.4785 9.3457 11.875V16.8262C9.3457 17.9199 8.91602 18.9453 8.14453 19.7168L4.64844 23.2129C3.66211 24.1992 3.66211 25.8008 4.64844 26.7871L8.14453 30.2832C8.91602 31.0547 9.3457 32.0801 9.3457 33.1738V38.125C9.3457 39.5215 10.4785 40.6543 11.875 40.6543H16.8262C17.9199 40.6543 18.9453 41.084 19.7168 41.8555L23.2129 45.3516C23.6914 45.8301 24.3262 46.0938 25 46.0938C25.6738 46.0938 26.3086 45.8301 26.7871 45.3516L30.2832 41.8555C31.0547 41.084 32.0801 40.6543 33.1738 40.6543H38.125C39.5215 40.6543 40.6543 39.5215 40.6543 38.125V33.1738C40.6543 32.0801 41.084 31.0547 41.8555 30.2832L45.3516 26.7871C46.3379 25.8008 46.3379 24.1992 45.3516 23.2129L41.8555 19.7168C41.084 18.9453 40.6543 17.9199 40.6543 16.8262V11.875C40.6543 10.4785 39.5215 9.3457 38.125 9.3457H33.1738C32.0801 9.3457 31.0547 8.91602 30.2832 8.14453L26.7871 4.64844C26.3086 4.16992 25.6738 3.90625 25 3.90625C24.3262 3.90625 23.6914 4.16992 23.2129 4.64844L19.7168 8.14453C18.9453 8.91602 17.9199 9.3457 16.8262 9.3457H11.875Z" fill="currentColor"/>
<path d="M25 39.2676C17.1289 39.2676 10.7324 32.8613 10.7324 25C10.7324 17.1387 17.1289 10.7324 25 10.7324C32.8711 10.7324 39.2676 17.1289 39.2676 25C39.2676 32.8711 32.8711 39.2676 25 39.2676ZM25 12.2949C17.9883 12.2949 12.2949 17.998 12.2949 25C12.2949 32.002 17.9883 37.7051 25 37.7051C32.0117 37.7051 37.7051 32.002 37.7051 25C37.7051 17.998 32.0117 12.2949 25 12.2949Z" fill="currentColor"/>
<g clip-path="url(#fclip0_24_93)">
<path d="M15.8181 27.9394H18.5045V23.4415H20.6291V22.8694H17.9324V27.3673H15.246V32.8974H30.1509V32.3253H15.8181V27.9394Z" fill="currentColor"/>
<path d="M32.0531 27.3673V22.8694H21.1884V23.4415H31.481V27.9394H34.1936V32.3253H30.723V32.8974H34.7656V27.3673H32.0531Z" fill="currentColor"/>
<path d="M23.2449 31.5761L23.4797 30.9779H24.5037L24.736 31.5752L25.2692 31.3678L24.2403 28.7235L23.7501 28.7241L22.7123 31.367L23.2449 31.5761ZM23.9941 29.6681L24.2811 30.4059H23.7044L23.9941 29.6681Z" fill="currentColor"/>
<path d="M25.8649 28.7307V31.6188H27.2883V31.0467H26.4369V28.7307H25.8649Z" fill="currentColor"/>
<path d="M27.8522 28.7307H28.4242V31.5955H27.8522V28.7307Z" fill="currentColor"/>
<path d="M32.8418 31.5961L32.8449 30.0981L33.5487 29.0527L33.0741 28.7332L32.5587 29.4989L32.0375 28.7269L31.5634 29.047L32.2728 30.0978L32.2698 31.5949L32.8418 31.5961Z" fill="currentColor"/>
<path d="M19.8889 28.7296V30.5625C19.8889 30.9219 20.0539 31.2021 20.3934 31.419C20.5697 31.5316 20.7686 31.5889 20.9848 31.5892C21.1714 31.5895 21.347 31.549 21.5062 31.4689C22.0062 31.217 22.1111 30.836 22.1111 30.5607V28.7296H21.5391V30.5607C21.5391 30.6776 21.5061 30.8284 21.2489 30.9579C21.1695 30.9979 21.0832 31.0173 20.9856 31.0171C20.8786 31.017 20.7857 30.9907 20.7015 30.9369C20.5019 30.8094 20.4609 30.6949 20.4609 30.5625V28.7296H19.8889Z" fill="currentColor"/>
<path d="M30.96 29.245V28.673H29.0369V29.245H29.7098V31.5955H30.2819V29.245H30.96Z" fill="currentColor"/>
<path d="M17.8807 28.7435C17.0945 28.7435 16.4549 29.3832 16.4549 30.1693C16.444 31.3001 17.7537 31.9905 18.6766 31.3518L18.8269 31.5022L19.2315 31.0976L19.0772 30.9433C19.6932 30.0183 18.9991 28.7326 17.8807 28.7435ZM17.8807 31.023C16.7497 30.9801 16.75 29.3584 17.8807 29.3156C18.4884 29.3013 18.9205 29.9798 18.6572 30.5233L18.5023 30.3683L18.0977 30.7729L18.2591 30.9343C18.145 30.991 18.0165 31.023 17.8807 31.023Z" fill="currentColor"/>
<path d="M23.0884 24.3056H23.6605V27.1575H23.0884V24.3056Z" fill="currentColor"/>
<path d="M22.4751 24.3056H21.9031V25.4361H20.6003V24.3056H20.0283V27.1576H20.6003V26.0081H21.9031V27.1576H22.4751V24.3056Z" fill="currentColor"/>
<path d="M27.5294 24.3056V27.1576H28.1014V26.0081H29.4042V27.1576H29.9762V24.3056H29.4042V25.4361H28.1014V24.3056H27.5294Z" fill="currentColor"/>
<path d="M25.6492 24.8824C25.8217 24.8824 25.9879 24.9331 26.13 25.0291L26.4502 24.5551C25.523 23.9107 24.2022 24.6122 24.2169 25.7426C24.2634 27.5417 26.9268 27.7427 26.9247 25.7425V25.4565H25.9529V26.0286H26.3197C26.2467 26.3328 26.0455 26.6028 25.6492 26.6028C24.5096 26.5595 24.51 24.9254 25.6492 24.8824Z" fill="currentColor"/>
<path d="M22.3187 21.6619L25.0058 20.2492L27.693 21.6619L27.1798 18.6697L29.3537 16.5506L26.3494 16.1141L26.1032 15.6153L25.5902 15.8685L25.9695 16.637L28.1243 16.9501L26.5651 18.47L26.9332 20.6162L25.0058 19.6029L23.0785 20.6162L23.4465 18.47L21.8872 16.9501L24.0421 16.637L25.0058 14.6843L25.3362 15.3538L25.8492 15.1006L25.0058 13.3917L23.6622 16.1141L20.6579 16.5506L22.8319 18.6697L22.3187 21.6619Z" fill="currentColor"/>
<path d="M16.3829 21.4532L18.2414 20.4762L20.0998 21.4532L19.7449 19.3838L21.2484 17.9183L19.1706 17.6163L18.2414 15.7335L17.3122 17.6163L15.2344 17.9183L16.7379 19.3838L16.3829 21.4532ZM16.4637 18.3177L17.6921 18.1392L18.2414 17.0262L18.7907 18.1392L20.019 18.3177L19.1302 19.1842L19.34 20.4075L18.2413 19.8299L17.1427 20.4075L17.3525 19.1842L16.4637 18.3177Z" fill="currentColor"/>
<path d="M30.2007 19.3838L29.8458 21.4533L31.7042 20.4762L33.5627 21.4533L33.2077 19.3838L34.7112 17.9183L32.6334 17.6163L31.7042 15.7335L30.775 17.6163L28.6972 17.9183L30.2007 19.3838ZM31.1549 18.1392L31.7042 17.0262L32.2535 18.1392L33.4819 18.3177L32.593 19.1842L32.8029 20.4075L31.7042 19.8299L30.6055 20.4075L30.8153 19.1842L29.9265 18.3177L31.1549 18.1392Z" fill="currentColor"/>
</g>
<defs>
<clipPath id="fclip0_24_93">
<rect width="19.5312" height="19.5312" fill="currentColor" transform="translate(15.2344 13.3789)"/>
</clipPath>
</defs>
</symbol><symbol viewBox="0 0 24 24" fill="none" id="tiktok" xmlns="http://www.w3.org/2000/svg">
<path d="M18.1155 6.00894C17.0382 5.30651 16.2606 4.18262 16.0181 2.87246C15.9657 2.5894 15.9369 2.29807 15.9369 2H12.4985L12.493 15.78C12.4352 17.3231 11.1651 18.5616 9.60814 18.5616C9.12423 18.5616 8.66858 18.4406 8.2674 18.2295C7.34741 17.7454 6.71781 16.781 6.71781 15.6713C6.71781 14.0775 8.01448 12.7808 9.60814 12.7808C9.90564 12.7808 10.191 12.8299 10.461 12.9145V9.40424C10.1816 9.3662 9.89776 9.34242 9.60814 9.34242C6.1184 9.34242 3.2794 12.1816 3.2794 15.6713C3.2794 17.8124 4.34916 19.7072 5.98119 20.853C7.00917 21.5747 8.25958 22 9.60814 22C13.0979 22 15.9369 19.161 15.9369 15.6713V8.68367C17.2855 9.65161 18.9377 10.222 20.7206 10.222V6.7836C19.7602 6.7836 18.8657 6.49808 18.1155 6.00894" fill="currentColor"/>
</symbol><symbol viewBox="0 0 24 24" fill="none" id="youtube" xmlns="http://www.w3.org/2000/svg">
<path fill-rule="evenodd" clip-rule="evenodd" d="M19.792 5.41471C20.6521 5.64577 21.3325 6.32614 21.5635 7.18621C21.9872 8.75232 22 12.0001 22 12.0001C22 12.0001 22 15.2607 21.5764 16.8139C21.3453 17.674 20.665 18.3544 19.8049 18.5854C18.2516 19.0091 12 19.0091 12 19.0091C12 19.0091 5.74839 19.0091 4.19512 18.5854C3.33504 18.3544 2.65469 17.674 2.42362 16.8139C2 15.2478 2 12.0001 2 12.0001C2 12.0001 2 8.75232 2.41078 7.19905C2.64185 6.33897 3.32221 5.65861 4.18228 5.42755C5.73556 5.00392 11.9872 4.99109 11.9872 4.99109C11.9872 4.99109 18.2388 4.99109 19.792 5.41471ZM15.1836 12.0001L9.99743 15.0039V8.99623L15.1836 12.0001Z" fill="currentColor"/>
</symbol></svg>