<svg width="260" height="260" viewBox="0 0 260 260" fill="none" xmlns="http://www.w3.org/2000/svg">
<rect width="260" height="260" fill="#C5C5F6"/>
<path d="M31.5 108.88C35.94 108.88 39.82 109.76 43.14 111.52C46.46 113.28 49.02 115.76 50.82 118.96C52.66 122.12 53.58 125.78 53.58 129.94C53.58 134.06 52.66 137.72 50.82 140.92C49.02 144.12 46.44 146.6 43.08 148.36C39.76 150.12 35.9 151 31.5 151H15.72V108.88H31.5ZM30.84 142.12C34.72 142.12 37.74 141.06 39.9 138.94C42.06 136.82 43.14 133.82 43.14 129.94C43.14 126.06 42.06 123.04 39.9 120.88C37.74 118.72 34.72 117.64 30.84 117.64H25.98V142.12H30.84ZM57.2738 134.2C57.2738 130.76 57.9138 127.74 59.1938 125.14C60.5138 122.54 62.2938 120.54 64.5338 119.14C66.7738 117.74 69.2738 117.04 72.0338 117.04C74.3938 117.04 76.4538 117.52 78.2138 118.48C80.0138 119.44 81.3938 120.7 82.3538 122.26V117.52H92.6138V151H82.3538V146.26C81.3538 147.82 79.9538 149.08 78.1538 150.04C76.3938 151 74.3338 151.48 71.9738 151.48C69.2538 151.48 66.7738 150.78 64.5338 149.38C62.2938 147.94 60.5138 145.92 59.1938 143.32C57.9138 140.68 57.2738 137.64 57.2738 134.2ZM82.3538 134.26C82.3538 131.7 81.6338 129.68 80.1938 128.2C78.7938 126.72 77.0738 125.98 75.0338 125.98C72.9938 125.98 71.2538 126.72 69.8138 128.2C68.4138 129.64 67.7138 131.64 67.7138 134.2C67.7138 136.76 68.4138 138.8 69.8138 140.32C71.2538 141.8 72.9938 142.54 75.0338 142.54C77.0738 142.54 78.7938 141.8 80.1938 140.32C81.6338 138.84 82.3538 136.82 82.3538 134.26ZM120.436 117.16C124.356 117.16 127.476 118.44 129.796 121C132.156 123.52 133.336 127 133.336 131.44V151H123.136V132.82C123.136 130.58 122.556 128.84 121.396 127.6C120.236 126.36 118.676 125.74 116.716 125.74C114.756 125.74 113.196 126.36 112.036 127.6C110.876 128.84 110.296 130.58 110.296 132.82V151H100.036V117.52H110.296V121.96C111.336 120.48 112.736 119.32 114.496 118.48C116.256 117.6 118.236 117.16 120.436 117.16ZM138.426 134.2C138.426 130.76 139.066 127.74 140.346 125.14C141.666 122.54 143.446 120.54 145.686 119.14C147.926 117.74 150.426 117.04 153.186 117.04C155.546 117.04 157.606 117.52 159.366 118.48C161.166 119.44 162.546 120.7 163.506 122.26V117.52H173.766V151H163.506V146.26C162.506 147.82 161.106 149.08 159.306 150.04C157.546 151 155.486 151.48 153.126 151.48C150.406 151.48 147.926 150.78 145.686 149.38C143.446 147.94 141.666 145.92 140.346 143.32C139.066 140.68 138.426 137.64 138.426 134.2ZM163.506 134.26C163.506 131.7 162.786 129.68 161.346 128.2C159.946 126.72 158.226 125.98 156.186 125.98C154.146 125.98 152.406 126.72 150.966 128.2C149.566 129.64 148.866 131.64 148.866 134.2C148.866 136.76 149.566 138.8 150.966 140.32C152.406 141.8 154.146 142.54 156.186 142.54C158.226 142.54 159.946 141.8 161.346 140.32C162.786 138.84 163.506 136.82 163.506 134.26ZM201.589 117.16C205.509 117.16 208.629 118.44 210.949 121C213.309 123.52 214.489 127 214.489 131.44V151H204.289V132.82C204.289 130.58 203.709 128.84 202.549 127.6C201.389 126.36 199.829 125.74 197.869 125.74C195.909 125.74 194.349 126.36 193.189 127.6C192.029 128.84 191.449 130.58 191.449 132.82V151H181.189V117.52H191.449V121.96C192.489 120.48 193.889 119.32 195.649 118.48C197.409 117.6 199.389 117.16 201.589 117.16ZM231.218 142.54H245.738V151H219.758V142.84L233.678 125.98H219.878V117.52H245.438V125.68L231.218 142.54Z" fill="#333333"/>
<path d="M116 141V164.689H198V141" stroke="black" stroke-width="2" stroke-linecap="round"/>
<path d="M122.378 164.689L116.911 172.889" stroke="black" stroke-width="2" stroke-linecap="round"/>
<path d="M191.622 164.689L197.089 172.889" stroke="black" stroke-width="2" stroke-linecap="round"/>
</svg>
